<?xml version="1.0" encoding="utf-8"?>
<!-- Generator: Adobe Illustrator 21.1.0, SVG Export Plug-In . SVG Version: 6.00 Build 0)  -->
<svg version="1.1" baseProfile="tiny" id="Слой_1"
	 xmlns="http://www.w3.org/2000/svg" xmlns:xlink="http://www.w3.org/1999/xlink" x="0px" y="0px" viewBox="0 0 52 68"
	 xml:space="preserve">
<g>
	<path fill="#C0C7D0" d="M26,68c-0.1,0-0.3,0-0.4,0C25.7,68,25.9,68,26,68z"/>
	<path fill="#C0C7D0" d="M25.4,67.9c-0.1,0-0.1,0-0.2-0.1C25.3,67.9,25.4,67.9,25.4,67.9z"/>
	<path fill="#C0C7D0" d="M25,67.7c-0.1,0-0.1-0.1-0.2-0.1C24.9,67.7,25,67.7,25,67.7z"/>
	<path fill="#C0C7D0" d="M24,61.2L3.4,40.6c-0.8-0.8-2-0.8-2.8,0c-0.8,0.8-0.8,2,0,2.8l24,24C24.2,67.1,24,66.6,24,66V61.2z"/>
	<path fill="#C0C7D0" d="M48.6,40.6L28,61.2V66c0,0.6-0.2,1.1-0.6,1.4l24-24c0.8-0.8,0.8-2,0-2.8S49.4,39.8,48.6,40.6z"/>
	<path fill="#C0C7D0" d="M26.4,68c-0.1,0-0.3,0-0.4,0C26.1,68,26.3,68,26.4,68z"/>
	<path fill="#C0C7D0" d="M27.1,67.7c0,0-0.1,0.1-0.1,0.1C27,67.7,27.1,67.7,27.1,67.7z"/>
	<path fill="#C0C7D0" d="M26.8,67.8c-0.1,0-0.1,0-0.2,0.1C26.6,67.9,26.7,67.9,26.8,67.8z"/>
	<path fill="#C0C7D0" d="M28,61.2V2c0-1.1-0.9-2-2-2s-2,0.9-2,2v59.2V66c0,0.6,0.2,1.1,0.6,1.4c0.1,0.1,0.2,0.2,0.3,0.3
		c0,0,0.1,0.1,0.2,0.1c0.1,0,0.1,0.1,0.2,0.1c0.1,0,0.1,0,0.2,0.1c0.1,0,0.1,0,0.2,0.1c0.1,0,0.3,0,0.4,0c0.1,0,0.3,0,0.4,0
		c0.1,0,0.1,0,0.2-0.1c0.1,0,0.1,0,0.2-0.1c0.1,0,0.1-0.1,0.2-0.1c0,0,0.1,0,0.1-0.1c0.1-0.1,0.2-0.2,0.3-0.3
		c0.4-0.4,0.6-0.9,0.6-1.4V61.2z"/>
</g>
</svg>
