<?xml version="1.0" encoding="utf-8"?>
<!-- Generator: Adobe Illustrator 21.1.0, SVG Export Plug-In . SVG Version: 6.00 Build 0)  -->
<svg version="1.1" baseProfile="tiny" id="Layer_1" xmlns="http://www.w3.org/2000/svg" xmlns:xlink="http://www.w3.org/1999/xlink"
	 x="0px" y="0px" viewBox="0 0 124 118" xml:space="preserve">
<g>
	<path fill="none" stroke="#2A6E76" stroke-width="4" stroke-linecap="round" stroke-linejoin="round" d="M10.8,93L2.2,41.5
		c-0.8-3.8,1.6-7.6,5.5-8.4C8.1,33.1,8.6,33,9,33H115c3.9,0,7,3.2,7,7.1c0,0.5-0.1,1-0.1,1.4L113.2,93"/>
	<path fill="none" stroke="#2A6E76" stroke-width="4" stroke-linecap="round" stroke-linejoin="round" d="M33.8,33.1L64,4.9
		c2.8-2.7,7.2-2.7,10,0l30.3,28.2"/>
	
		<line fill="none" stroke="#2A6E76" stroke-width="4" stroke-linecap="round" stroke-linejoin="round" x1="17.9" y1="33.1" x2="51" y2="2"/>
	
		<line fill="none" stroke="#2A6E76" stroke-width="4" stroke-linecap="round" stroke-linejoin="round" x1="75" y1="102" x2="49" y2="102"/>
	<path fill="none" stroke="#2A6E76" stroke-width="4" stroke-linecap="round" stroke-linejoin="round" d="M37.5,106.3
		c-2.4,1.4-5.4,0.5-6.8-1.8c-1.4-2.4-0.5-5.4,1.8-6.8c2.4-1.4,5.4-0.6,6.8,1.8C40.7,101.9,39.9,104.9,37.5,106.3
		C37.5,106.3,37.5,106.3,37.5,106.3z"/>
	<path fill="none" stroke="#2A6E76" stroke-width="4" stroke-linecap="round" stroke-linejoin="round" d="M91.5,106.3
		c-2.4,1.4-5.4,0.5-6.8-1.8c-1.4-2.4-0.5-5.4,1.8-6.8c2.4-1.4,5.4-0.6,6.8,1.8C94.7,101.9,93.9,104.9,91.5,106.3
		C91.5,106.3,91.5,106.3,91.5,106.3z"/>
	
		<ellipse fill="none" stroke="#2A6E76" stroke-width="4" stroke-linecap="round" stroke-linejoin="round" cx="35" cy="102" rx="14" ry="14"/>
	
		<ellipse fill="none" stroke="#2A6E76" stroke-width="4" stroke-linecap="round" stroke-linejoin="round" cx="89" cy="102" rx="14" ry="14"/>
	<path fill="none" stroke="#2A6E76" stroke-width="4" stroke-linecap="round" stroke-linejoin="round" d="M51,51h16.5
		c7.3,0,7.3,11,0,11H58"/>
	<path fill="none" stroke="#2A6E76" stroke-width="4" stroke-linecap="round" stroke-linejoin="round" d="M51,76h19.7
		c9.8,0,9.7-13.9,0-14H58"/>
	
		<line fill="none" stroke="#2A6E76" stroke-width="4" stroke-linecap="round" stroke-linejoin="round" x1="58" y1="45" x2="58" y2="81"/>
</g>
</svg>
