<?xml version="1.0" encoding="utf-8"?>
<!-- Generator: Adobe Illustrator 21.1.0, SVG Export Plug-In . SVG Version: 6.00 Build 0)  -->
<svg version="1.1" baseProfile="tiny" id="Layer_1" xmlns="http://www.w3.org/2000/svg" xmlns:xlink="http://www.w3.org/1999/xlink"
	 x="0px" y="0px" viewBox="0 0 134 134" xml:space="preserve">
<g>
	<path fill="none" stroke="#FFFFFF" stroke-width="4" stroke-linecap="round" stroke-linejoin="round" d="M59.4,106
		c-21.7-4.2-35.8-25-31.7-46.5C30.8,43.5,43.4,31.1,59.4,28"/>
	<path fill="none" stroke="#FFFFFF" stroke-width="4" stroke-linecap="round" stroke-linejoin="round" d="M74.6,28
		c21.7,4.2,35.8,25,31.7,46.5c-3.1,15.9-15.6,28.4-31.7,31.5"/>
	<path fill="none" stroke="#FFFFFF" stroke-width="4" stroke-linecap="round" stroke-linejoin="round" d="M75.9,56.7
		c-12-8.6-17.1-0.3-16.3,4.3c0.6,4,6.4,5.4,8.7,5.8c16.5,2.4,5.5,21.8-10.8,9.7"/>
	
		<line fill="none" stroke="#FFFFFF" stroke-width="4" stroke-linecap="round" stroke-linejoin="round" x1="67" y1="48" x2="67" y2="53"/>
	
		<line fill="none" stroke="#FFFFFF" stroke-width="4" stroke-linecap="round" stroke-linejoin="round" x1="67" y1="80" x2="67" y2="86"/>
	<polyline fill="none" stroke="#FFFFFF" stroke-width="4" stroke-linecap="round" stroke-linejoin="round" points="118,124 118,108 
		102,108 	"/>
	<path fill="none" stroke="#FFFFFF" stroke-width="4" stroke-linecap="round" stroke-linejoin="round" d="M117,108.7
		c-1.3,1.5-2.5,2.9-3.8,4.2c-25.5,25.4-66.8,25.4-92.2-0.2C7,98.8,0.2,79.1,2.4,59.4"/>
	<polyline fill="none" stroke="#FFFFFF" stroke-width="4" stroke-linecap="round" stroke-linejoin="round" points="14,12 14,28 
		30,28 	"/>
	<path fill="none" stroke="#FFFFFF" stroke-width="4" stroke-linecap="round" stroke-linejoin="round" d="M17,25.3
		c1.3-1.5,2.5-2.9,3.8-4.2C46.3-4.4,87.6-4.3,113,21.2c14,14.1,20.8,33.7,18.6,53.5"/>
</g>
</svg>
