<?xml version="1.0" encoding="utf-8"?>
<!-- Generator: Adobe Illustrator 22.0.1, SVG Export Plug-In . SVG Version: 6.00 Build 0)  -->
<svg version="1.1" id="Слой_1" xmlns="http://www.w3.org/2000/svg" xmlns:xlink="http://www.w3.org/1999/xlink" x="0px" y="0px"
	 viewBox="0 0 354 130" style="enable-background:new 0 0 354 130;" xml:space="preserve">
<style type="text/css">
	.st0{clip-path:url(#SVGID_2_);}
	.st1{opacity:0.25;clip-path:url(#SVGID_4_);}
	.st2{clip-path:url(#SVGID_6_);fill:#FFFFFF;}
	.st3{opacity:0.5;clip-path:url(#SVGID_4_);}
	.st4{clip-path:url(#SVGID_8_);fill:#FFFFFF;}
	.st5{opacity:0.75;clip-path:url(#SVGID_4_);}
	.st6{clip-path:url(#SVGID_10_);fill:#FFFFFF;}
	.st7{clip-path:url(#SVGID_12_);fill:#FFFFFF;}
	.st8{clip-path:url(#SVGID_14_);fill:#FFFFFF;}
	.st9{clip-path:url(#SVGID_4_);fill:#FFFFFF;}
	.st10{clip-path:url(#SVGID_16_);fill:#FFFFFF;}
</style>
<g>
	<defs>
		<rect id="SVGID_1_" x="0" y="0" width="354" height="130"/>
	</defs>
	<clipPath id="SVGID_2_">
		<use xlink:href="#SVGID_1_"  style="overflow:visible;"/>
	</clipPath>
	<g class="st0">
		<defs>
			<rect id="SVGID_3_" x="0" y="0" width="354" height="130"/>
		</defs>
		<clipPath id="SVGID_4_">
			<use xlink:href="#SVGID_3_"  style="overflow:visible;"/>
		</clipPath>
		<g class="st1">
			<g>
				<defs>
					<rect id="SVGID_5_" x="6" y="1.6" width="54.8" height="126.7"/>
				</defs>
				<clipPath id="SVGID_6_">
					<use xlink:href="#SVGID_5_"  style="overflow:visible;"/>
				</clipPath>
				<path class="st2" d="M25.6,73.2C21.2,48.8,36.9,25.4,60.8,20l0,0L56.6,1.6C22.9,9.3,0.9,42.2,7,76.5
					c4.8,26.4,24.9,46.2,49.5,51.9l4.2-18.4C43.2,106,29,91.9,25.6,73.2"/>
			</g>
		</g>
		<g class="st3">
			<g>
				<defs>
					<rect id="SVGID_7_" x="56.6" y="0" width="70.1" height="41.1"/>
				</defs>
				<clipPath id="SVGID_8_">
					<use xlink:href="#SVGID_7_"  style="overflow:visible;"/>
				</clipPath>
				<path class="st4" d="M110.5,41.1C103.9,30.2,92.8,22,79.2,19.6c-6.3-1.1-12.6-0.9-18.4,0.4L56.6,1.6c8.3-1.9,17.1-2.2,26-0.6
					c19.1,3.4,34.8,14.9,44.1,30.4L110.5,41.1z"/>
			</g>
		</g>
		<g class="st5">
			<g>
				<defs>
					<rect id="SVGID_9_" x="56.5" y="88.9" width="70.1" height="41.1"/>
				</defs>
				<clipPath id="SVGID_10_">
					<use xlink:href="#SVGID_9_"  style="overflow:visible;"/>
				</clipPath>
				<path class="st6" d="M110.5,88.9c-6.6,10.9-17.7,19.1-31.3,21.6c-6.3,1.1-12.6,0.9-18.4-0.4l-4.2,18.4c8.3,1.9,17.1,2.2,26,0.6
					c19.1-3.4,34.8-14.9,44.1-30.4L110.5,88.9z"/>
			</g>
		</g>
		<g class="st3">
			<g>
				<defs>
					<rect id="SVGID_11_" x="257.5" y="53.6" width="96.5" height="24.7"/>
				</defs>
				<clipPath id="SVGID_12_">
					<use xlink:href="#SVGID_11_"  style="overflow:visible;"/>
				</clipPath>
				<path class="st7" d="M265.2,77.6h2.2V66.2h11.3v-2h-11.3v-8.6h12.2v-2h-14.4V77.6z M299,67.8c0,0.9-0.1,1.8-0.2,2.8
					c-0.2,1-0.5,1.9-0.9,2.7c-0.5,0.8-1.1,1.5-2,2.1c-0.8,0.5-2,0.8-3.4,0.8c-1.4,0-2.5-0.3-3.4-0.8c-0.9-0.5-1.5-1.2-2-2.1
					c-0.5-0.8-0.8-1.7-0.9-2.7c-0.2-1-0.2-1.9-0.2-2.8V53.6h-2.2v14.9c0,1.3,0.1,2.5,0.4,3.7c0.3,1.2,0.8,2.2,1.5,3.1
					c0.7,0.9,1.6,1.6,2.7,2.2c1.1,0.5,2.5,0.8,4.1,0.8c1.6,0,3-0.3,4.1-0.8c1.1-0.5,2-1.3,2.7-2.2c0.7-0.9,1.2-1.9,1.5-3.1
					c0.3-1.2,0.4-2.4,0.4-3.7V53.6H299V67.8z M259.1,74.6c-0.5,0-0.8,0.2-1.2,0.5c-0.3,0.3-0.5,0.7-0.5,1.2c0,0.5,0.2,0.8,0.5,1.2
					s0.7,0.5,1.2,0.5s0.8-0.2,1.2-0.5c0.3-0.3,0.5-0.7,0.5-1.2c0-0.5-0.2-0.8-0.5-1.2C260,74.7,259.6,74.6,259.1,74.6 M353.9,64.1
					c-0.1-0.7-0.2-1.5-0.5-2.4c-0.3-0.9-0.7-1.8-1.2-2.8c-0.6-1-1.3-1.8-2.3-2.6c-1-0.8-2.2-1.4-3.6-2c-1.5-0.5-3.2-0.8-5.3-0.8
					h-7.4v24.1h7.4c2.1,0,3.8-0.3,5.3-0.8c1.5-0.5,2.7-1.2,3.6-2c1-0.8,1.7-1.7,2.3-2.6c0.6-1,1-1.9,1.2-2.8
					c0.3-0.9,0.4-1.7,0.5-2.4c0.1-0.7,0.1-1.2,0.1-1.5C354,65.3,353.9,64.8,353.9,64.1 M350.8,70.1c-0.6,1.3-1.4,2.3-2.4,3.1
					c-1,0.8-2.2,1.4-3.6,1.8c-1.4,0.4-2.9,0.6-4.5,0.6h-4.6v-20h4.6c1.6,0,3.1,0.2,4.5,0.6c1.4,0.4,2.6,1,3.6,1.8
					c1,0.8,1.8,1.9,2.4,3.1c0.6,1.3,0.9,2.7,0.9,4.5C351.7,67.3,351.4,68.8,350.8,70.1 M325,74.6L325,74.6l-14.7-21.1h-2.9v24.1h2.2
					V56.5h0.1l14.6,21.1h2.9V53.6H325V74.6z"/>
			</g>
		</g>
		<g class="st3">
			<g>
				<defs>
					<rect id="SVGID_13_" x="22.7" y="16.7" width="117.4" height="96.6"/>
				</defs>
				<clipPath id="SVGID_14_">
					<use xlink:href="#SVGID_13_"  style="overflow:visible;"/>
				</clipPath>
				<path class="st8" d="M79,55.6h8.2v22h2.2v-22h8.2v-2H79V55.6z M71.1,16.7c-2.9,0-5.8,0.3-8.6,0.8c-12.7,2.3-23.7,9.4-31.1,20
					C24,48,21.2,60.8,23.5,73.5c4.1,23,24.1,39.8,47.5,39.8c2.9,0,5.8-0.3,8.6-0.8c12.7-2.3,23.7-9.4,31.1-20
					c7.4-10.6,10.2-23.4,7.9-36.1C114.4,33.4,94.4,16.7,71.1,16.7 M79.2,110.4c-2.8,0.5-5.5,0.7-8.2,0.7c-21.9,0-41.3-15.7-45.4-38
					c-4.5-25.1,12.2-49.1,37.3-53.6c2.8-0.5,5.5-0.7,8.2-0.7c21.9,0,41.3,15.7,45.4,38c0.4,2.5,0.7,4.9,0.7,7.3h-13.5V53.6h-2.2
					v24.1h2.2V66.2h13.5C116.6,87.6,101.1,106.5,79.2,110.4 M127.1,75.6v-9.4h11.7v-2h-11.7v-8.6h12.5v-2h-14.7v24.1h15.3v-2H127.1z
					"/>
			</g>
		</g>
		<path class="st9" d="M82.5,1c-8.9-1.6-17.7-1.3-26,0.6L60.8,20c5.9-1.3,12.1-1.6,18.4-0.4c0.7,0.1,1.4,0.3,2.1,0.4l4.2-18.4
			C84.5,1.4,83.5,1.2,82.5,1"/>
		<path class="st9" d="M244.4,65.1l8.4-11.6h-6.6l-5.1,7.1l-5.1-7.1h-6.6l8.4,11.6l-9.1,12.5h6.5l5.8-8l5.8,8h6.6L244.4,65.1z
			 M173.9,70.3L173.9,70.3l-10.3-16.7h-7.2v24.1h5.3V60.5h0.1l10.5,17.1h6.9V53.6h-5.3V70.3z M146.3,77.6h5.3V53.6h-5.3V77.6z
			 M202.1,56.3c-1.3-1-2.8-1.7-4.5-2.1c-1.7-0.4-3.6-0.6-5.5-0.6h-8v24.1h8.7c1.8,0,3.5-0.3,5.1-0.8c1.6-0.5,3.1-1.3,4.3-2.3
			c1.2-1,2.2-2.3,3-3.7c0.7-1.5,1.1-3.2,1.1-5.1c0-2.2-0.4-4.1-1.1-5.6C204.4,58.5,203.4,57.3,202.1,56.3 M200.2,68.8
			c-0.4,0.9-1,1.7-1.8,2.3c-0.8,0.6-1.7,1-2.7,1.2c-1.1,0.2-2.2,0.4-3.4,0.4h-2.8V58.5h3.1c1.1,0,2.2,0.1,3.2,0.4
			c1,0.3,1.9,0.7,2.6,1.3c0.7,0.6,1.3,1.3,1.8,2.2c0.4,0.9,0.7,1.9,0.7,3.1C200.8,66.7,200.6,67.9,200.2,68.8 M215.4,67.8h10.4v-4.9
			h-10.4v-4.5h11v-4.9h-16.3v24.1h17v-4.9h-11.7V67.8z"/>
		<g class="st1">
			<g>
				<defs>
					<rect id="SVGID_15_" x="6" y="1.6" width="54.8" height="126.7"/>
				</defs>
				<clipPath id="SVGID_16_">
					<use xlink:href="#SVGID_15_"  style="overflow:visible;"/>
				</clipPath>
				<path class="st10" d="M25.6,73.2C21.2,48.8,36.9,25.4,60.8,20l0,0L56.6,1.6C22.9,9.3,0.9,42.2,7,76.5
					c4.8,26.4,24.9,46.2,49.5,51.9l4.2-18.4C43.2,106,29,91.9,25.6,73.2"/>
			</g>
		</g>
		<path class="st9" d="M71,65L36.7,85.8l-26.4,16c-4.4-7.3-7.5-15.5-9.1-24.2c-3.2-17.7,0.4-35,9.1-49.3l26.4,16L71,65z"/>
	</g>
</g>
</svg>
