<?xml version="1.0" encoding="utf-8"?>
<!-- Generator: Adobe Illustrator 21.1.0, SVG Export Plug-In . SVG Version: 6.00 Build 0)  -->
<svg version="1.1" baseProfile="tiny" id="Layer_1" xmlns="http://www.w3.org/2000/svg" xmlns:xlink="http://www.w3.org/1999/xlink"
	 x="0px" y="0px" viewBox="0 0 110 134" xml:space="preserve">
<g>
	
		<line fill="none" stroke="#2A6E76" stroke-width="4" stroke-linecap="round" stroke-linejoin="round" x1="43" y1="39" x2="67" y2="39"/>
	<path fill="none" stroke="#2A6E76" stroke-width="4" stroke-linecap="round" stroke-linejoin="round" d="M49,5l31,4.7
		c-1.2,5.4-6.9,12.6-13.5,17.3H43.5C38.8,22,31.9,11.6,30,2"/>
	<path fill="none" stroke="#2A6E76" stroke-width="4" stroke-linecap="round" stroke-linejoin="round" d="M99.1,132
		c5.6-8.4,8.9-18.4,8.9-29.3C108,73.6,84.3,50,55,50S2,73.6,2,102.7c0,10.8,3.3,20.9,8.9,29.3H99.1z"/>
	<g>
		<path fill="none" stroke="#2A6E76" stroke-width="4" stroke-linecap="round" stroke-linejoin="round" d="M65.4,83.8
			c-13.9-9.7-19.8-0.3-18.8,4.9c0.8,4.5,7.4,6.1,10.1,6.5c19.1,2.6,6.4,24.5-12.6,10.9"/>
		
			<line fill="none" stroke="#2A6E76" stroke-width="4" stroke-linecap="round" stroke-linejoin="round" x1="55" y1="74" x2="55" y2="79"/>
		
			<line fill="none" stroke="#2A6E76" stroke-width="4" stroke-linecap="round" stroke-linejoin="round" x1="55" y1="110" x2="55" y2="117"/>
	</g>
</g>
</svg>
