<svg version="1.1" baseProfile="tiny" id="Layer_1" xmlns="http://www.w3.org/2000/svg" xmlns:xlink="http://www.w3.org/1999/xlink"
	 x="0px" y="0px" viewBox="0 0 1140 322" xml:space="preserve">
<path fill="#CBCDD7" d="M1120,190h-86c-11,0-20-9-20-20V84c0-11,9-20,20-20h86c11,0,20,9,20,20v86C1140,181,1131,190,1120,190z"/>
<g id="Cryptocurrency">
	<g>
		
			<line fill="none" stroke="#2A6E76" stroke-width="4" stroke-linecap="round" stroke-linejoin="round" x1="1090.9" y1="186.1" x2="1084.4" y2="212.2"/>
		
			<line fill="none" stroke="#2A6E76" stroke-width="4" stroke-linecap="round" stroke-linejoin="round" x1="1098.9" y1="212.2" x2="1084.4" y2="212.2"/>
		
			<line fill="none" stroke="#2A6E76" stroke-width="4" stroke-linecap="round" stroke-linejoin="round" x1="1096.9" y1="196.3" x2="1083.1" y2="202"/>
		<path fill="none" stroke="#2A6E76" stroke-width="4" stroke-linecap="round" stroke-linejoin="round" d="M1070.1,207.6l-7,2.9
			l0.1,0.3c5.9,14.8,22.8,22,37.6,16.1c12.2-4.9,19.6-17.5,17.9-30.6c0-0.3-0.1-0.6-0.1-0.9"/>
		<path fill="none" stroke="#2A6E76" stroke-width="4" stroke-linecap="round" stroke-linejoin="round" d="M1061.2,202.9
			c-0.1-1.1-0.1-2.2-0.1-3.3c0.2-16,13.4-28.7,29.3-28.5c11.1,0.2,21.2,6.7,25.8,16.8l0.1,0.2l-7,2.9"/>
	</g>
	<g>
		<path id="XRP_1_" fill="none" stroke="#2A6E76" stroke-width="4" stroke-linecap="round" stroke-linejoin="round" d="M986.9,204.7
			c1,2.6,2.9,4.7,5.4,6.1c5.9,3.3,13.3,1.7,16.6-4l0.1-0.2c1.1-2.5,4.1-3.6,6.6-2.5c2.5,1.1,3.6,4.1,2.5,6.6
			c-0.1,0.2-0.2,0.4-0.3,0.6c-3.2,5.6-1.3,12.8,4.3,16c0.1,0.1,0.2,0.1,0.3,0.2c3,1.7,6.6,2,9.9,0.9"/>
		<path id="XRP-2_1_" fill="none" stroke="#2A6E76" stroke-width="4" stroke-linecap="round" stroke-linejoin="round" d="
			M1038.7,223.3l0.3-0.5c3.2-5.7,1.3-12.9-4.4-16.1c-0.1-0.1-0.2-0.1-0.3-0.2c-1.9-1-4-1.6-6.1-1.5l0,0c-2.8,0.1-5.1-2.1-5.2-5
			c0-2.8,2.2-5.1,5-5.1c0,0,0,0,0,0l0,0c2.2,0,4.3-0.6,6.2-1.7c5.7-3.2,7.6-10.4,4.4-16.1c-0.1-0.1-0.1-0.2-0.2-0.3
			c-3.5-5.7-10.9-7.5-16.7-4.2c-5.7,3.2-7.6,10.4-4.4,16.1c0.1,0.1,0.1,0.2,0.2,0.3c1.4,2.3,0.7,5.4-1.7,6.8c0,0-0.1,0-0.1,0.1
			c-2.4,1.4-5.5,0.3-6.9-1.6c0,0-2.8-3.4-4.8-4.5c-5.8-3.3-13.2-1.3-16.5,4.5c-0.5,0.9-0.9,1.8-1.1,2.8"/>
	</g>
	<g>
		
			<line fill="none" stroke="#2A6E76" stroke-width="4" stroke-linecap="round" stroke-linejoin="round" x1="1062.3" y1="127.9" x2="1073.5" y2="127.9"/>
		
			<line fill="none" stroke="#2A6E76" stroke-width="4" stroke-linecap="round" stroke-linejoin="round" x1="1105.2" y1="127.9" x2="1118.3" y2="127.9"/>
		<polyline fill="none" stroke="#2A6E76" stroke-width="4" stroke-linecap="round" stroke-linejoin="round" points="1074.4,128 
			1090.3,99 1106.1,128 		"/>
		
			<line fill="none" stroke="#2A6E76" stroke-width="4" stroke-linecap="round" stroke-linejoin="round" x1="1090.3" y1="137.2" x2="1090.3" y2="103.7"/>
		<polyline fill="none" stroke="#2A6E76" stroke-width="4" stroke-linecap="round" stroke-linejoin="round" points="1074.4,136.3 
			1090.3,158.7 1106.1,136.3 		"/>
		<polyline fill="none" stroke="#2A6E76" stroke-width="4" stroke-linecap="round" stroke-linejoin="round" points="1106.1,128 
			1090.3,137.7 1074.4,128 		"/>
		
			<line fill="none" stroke="#2A6E76" stroke-width="4" stroke-linecap="round" stroke-linejoin="round" x1="1090.3" y1="157.7" x2="1090.3" y2="137.2"/>
	</g>
	<g>
		<path fill="none" stroke="#2A6E76" stroke-width="4" stroke-linecap="round" stroke-linejoin="round" d="M986.8,140.1
			c6.2,14.7,23.1,21.7,37.8,15.5c12.1-5,19.3-17.6,17.5-30.5V125"/>
		<path fill="none" stroke="#2A6E76" stroke-width="4" stroke-linecap="round" stroke-linejoin="round" d="M984.8,132.3L984.8,132.3
			c0-0.3-0.1-0.6-0.1-0.9c-1.5-15.9,10.2-30,26.1-31.5c11.3-1.1,22.1,4.6,27.8,14.4c0.4,0.9,1.1,2.3,1.4,3.2"/>
		<path fill="none" stroke="#2A6E76" stroke-width="4" stroke-linecap="round" stroke-linejoin="round" d="M1004.1,117.5h9.3
			c2.6,0,4.7,2.1,4.7,4.7s-2.1,4.7-4.7,4.7h-6.5"/>
		<path fill="none" stroke="#2A6E76" stroke-width="4" stroke-linecap="round" stroke-linejoin="round" d="M1004.1,139.9h13.1
			c9.5,0,9.5-12.1,0-13.1h-10.3"/>
		
			<line fill="none" stroke="#2A6E76" stroke-width="4" stroke-linecap="round" stroke-linejoin="round" x1="1006.9" y1="111" x2="1006.9" y2="146.4"/>
		
			<line fill="none" stroke="#2A6E76" stroke-width="4" stroke-linecap="round" stroke-linejoin="round" x1="1012.5" y1="111" x2="1012.5" y2="117.5"/>
		
			<line fill="none" stroke="#2A6E76" stroke-width="4" stroke-linecap="round" stroke-linejoin="round" x1="1012.5" y1="139.9" x2="1012.5" y2="146.4"/>
		
			<line fill="none" stroke="#2A6E76" stroke-width="4" stroke-linecap="round" stroke-linejoin="round" x1="993.9" y1="139.9" x2="986.8" y2="139.9"/>
		
			<line fill="none" stroke="#2A6E76" stroke-width="4" stroke-linecap="round" stroke-linejoin="round" x1="1039.6" y1="117.5" x2="1032.1" y2="117.5"/>
	</g>
</g>
<g id="Arrow">
	<path fill="none" stroke="#2A6E76" stroke-width="4" stroke-linecap="round" stroke-linejoin="round" d="M920,136l-28,28l28,28"/>
	
		<line fill="none" stroke="#2A6E76" stroke-width="4" stroke-linecap="round" stroke-linejoin="round" x1="978" y1="164" x2="892" y2="164"/>
</g>
<path fill="#CBCDD7" d="M850,190h-86c-11,0-20-9-20-20V84c0-11,9-20,20-20h86c11,0,20,9,20,20v86C870,181,861,190,850,190z"/>
<text transform="matrix(1 0 0 1 700.0533 253.4717)" fill="#2A6E76" stroke="#2A6E76" stroke-linecap="round" stroke-linejoin="round" stroke-miterlimit="10" font-family="'Proxima Nova'" font-size="24px">E</text>
<text transform="matrix(1 0 0 1 716.1089 253.4717)" fill="#2A6E76" stroke="#2A6E76" stroke-linecap="round" stroke-linejoin="round" stroke-miterlimit="10" font-family="'Proxima Nova'" font-size="24px">x</text>
<text transform="matrix(1 0 0 1 733.4366 253.4717)" fill="#2A6E76" stroke="#2A6E76" stroke-linecap="round" stroke-linejoin="round" stroke-miterlimit="10" font-family="'Proxima Nova'" font-size="24px">c</text>
<text transform="matrix(1 0 0 1 752.0606 253.4717)" fill="#2A6E76" stroke="#2A6E76" stroke-linecap="round" stroke-linejoin="round" stroke-miterlimit="10" font-family="'Proxima Nova'" font-size="24px">h</text>
<text transform="matrix(1 0 0 1 771.5484 253.4717)" fill="#2A6E76" stroke="#2A6E76" stroke-linecap="round" stroke-linejoin="round" stroke-miterlimit="10" font-family="'Proxima Nova'" font-size="24px">a</text>
<text transform="matrix(1 0 0 1 789.7403 253.4717)" fill="#2A6E76" stroke="#2A6E76" stroke-linecap="round" stroke-linejoin="round" stroke-miterlimit="10" font-family="'Proxima Nova'" font-size="24px">n</text>
<text transform="matrix(1 0 0 1 809.1319 253.4717)" fill="#2A6E76" stroke="#2A6E76" stroke-linecap="round" stroke-linejoin="round" stroke-miterlimit="10" font-family="'Proxima Nova'" font-size="24px">g</text>
<text transform="matrix(1 0 0 1 828.6441 253.4717)" fill="#2A6E76" stroke="#2A6E76" stroke-linecap="round" stroke-linejoin="round" stroke-miterlimit="10" font-family="'Proxima Nova'" font-size="24px">e</text>
<g id="Exchange">
	
		<line fill="none" stroke="#2A6E76" stroke-width="4" stroke-linecap="round" stroke-linejoin="round" x1="690" y1="222" x2="850" y2="222"/>
	
		<line fill="none" stroke="#2A6E76" stroke-width="4" stroke-linecap="round" stroke-linejoin="round" x1="838" y1="122" x2="838" y2="190"/>
	
		<line fill="none" stroke="#2A6E76" stroke-width="4" stroke-linecap="round" stroke-linejoin="round" x1="809" y1="122" x2="809" y2="206"/>
	
		<line fill="none" stroke="#2A6E76" stroke-width="4" stroke-linecap="round" stroke-linejoin="round" x1="731" y1="122" x2="731" y2="206"/>
	
		<line fill="none" stroke="#2A6E76" stroke-width="4" stroke-linecap="round" stroke-linejoin="round" x1="702" y1="190" x2="702" y2="122"/>
	
		<line fill="none" stroke="#2A6E76" stroke-width="4" stroke-linecap="round" stroke-linejoin="round" x1="839" y1="206" x2="701" y2="206"/>
	<path fill="none" stroke="#2A6E76" stroke-width="4" stroke-linecap="round" stroke-linejoin="round" d="M843.3,122
		c2.7-0.1,4.8-2.2,4.7-4.9c0-1.8-1.1-3.4-2.7-4.2l-70.7-32.8c-2.9-1.5-6.3-1.5-9.2,0l-70.7,32.8c-2.4,1.2-3.4,4-2.2,6.4
		c0.8,1.6,2.4,2.6,4.2,2.7H843.3z"/>
	<path fill="none" stroke="#2A6E76" stroke-width="4" stroke-linecap="round" stroke-linejoin="round" d="M782,206v-52.6
		c0.3-6-4.6-11.1-11-11.4c-0.1,0-0.3,0-0.4,0h-0.3c-6.7,0-12.1,5.1-12.3,11.4V190"/>
</g>
<text transform="matrix(1 0 0 1 611.4468 289.6152)" fill="#2A6E76" font-family="'Proxima Nova'" font-size="22px">I</text>
<text transform="matrix(1 0 0 1 616.7046 289.6152)" fill="#2A6E76" font-family="'Proxima Nova'" font-size="22px">n</text>
<text transform="matrix(1 0 0 1 628.8267 289.6152)" fill="#2A6E76" font-family="'Proxima Nova'" font-size="22px">d</text>
<text transform="matrix(1 0 0 1 641.4771 289.6152)" fill="#2A6E76" font-family="'Proxima Nova'" font-size="22px">e</text>
<text transform="matrix(1 0 0 1 653.8618 289.6152)" fill="#2A6E76" font-family="'Proxima Nova'" font-size="22px">x</text>
<text transform="matrix(1 0 0 1 597.8843 316.0156)" fill="#2A6E76" font-family="'Proxima Nova'" font-size="22px">P</text>
<text transform="matrix(1 0 0 1 610.5122 316.0156)" fill="#2A6E76" font-family="'Proxima Nova'" font-size="22px">o</text>
<text transform="matrix(1 0 0 1 623.0962 316.0156)" fill="#2A6E76" font-family="'Proxima Nova'" font-size="22px">r</text>
<text transform="matrix(1 0 0 1 630.356 316.0156)" fill="#2A6E76" font-family="'Proxima Nova'" font-size="22px">t</text>
<text transform="matrix(1 0 0 1 636.8237 316.0156)" fill="#2A6E76" font-family="'Proxima Nova'" font-size="22px">f</text>
<text transform="matrix(1 0 0 1 643.0493 316.0156)" fill="#2A6E76" font-family="'Proxima Nova'" font-size="22px">o</text>
<text transform="matrix(1 0 0 1 655.6333 316.0156)" fill="#2A6E76" font-family="'Proxima Nova'" font-size="22px">l</text>
<text transform="matrix(1 0 0 1 660.5835 316.0156)" fill="#2A6E76" font-family="'Proxima Nova'" font-size="22px">i</text>
<text transform="matrix(1 0 0 1 665.5327 316.0156)" fill="#2A6E76" font-family="'Proxima Nova'" font-size="22px">o</text>
<g id="Arrow_1_">
	<path fill="none" stroke="#2A6E76" stroke-width="4" stroke-linecap="round" stroke-linejoin="round" d="M619,194l-28,28l28,28"/>
	
		<line fill="none" stroke="#2A6E76" stroke-width="4" stroke-linecap="round" stroke-linejoin="round" x1="677" y1="222" x2="591" y2="222"/>
</g>
<g id="Arrow_2_">
	<path fill="none" stroke="#6C88AD" stroke-width="4" stroke-linecap="round" stroke-linejoin="round" d="M607,134l28-28l-28-28"/>
	
		<line fill="none" stroke="#6C88AD" stroke-width="4" stroke-linecap="round" stroke-linejoin="round" x1="541" y1="106" x2="635" y2="106"/>
</g>
<text transform="matrix(1 0 0 1 563.8723 52.0156)" fill="#2A6E76" font-family="'Proxima Nova'" font-size="22px">Cryptocurrency</text>
<path fill="#6C88AD" d="M521,276H337c-11,0-20-9-20-20V72c0-11,9-20,20-20h184c11,0,20,9,20,20v184C541,267,532,276,521,276z"/>
<text transform="matrix(1 0 0 1 388.0079 112.7378)" fill="#FFFFFF" stroke="#FFFFFF" stroke-linecap="round" stroke-linejoin="round" stroke-miterlimit="10" font-family="'Proxima Nova'" font-size="24px">V</text>
<text transform="matrix(1 0 0 1 404.9039 112.7378)" fill="#FFFFFF" stroke="#FFFFFF" stroke-linecap="round" stroke-linejoin="round" stroke-miterlimit="10" font-family="'Proxima Nova'" font-size="24px">a</text>
<text transform="matrix(1 0 0 1 422.4722 112.7378)" fill="#FFFFFF" stroke="#FFFFFF" stroke-linecap="round" stroke-linejoin="round" stroke-miterlimit="10" font-family="'Proxima Nova'" font-size="24px">u</text>
<text transform="matrix(1 0 0 1 441.6719 112.7378)" fill="#FFFFFF" stroke="#FFFFFF" stroke-linecap="round" stroke-linejoin="round" stroke-miterlimit="10" font-family="'Proxima Nova'" font-size="24px">l</text>
<text transform="matrix(1 0 0 1 453.9122 112.7378)" fill="#FFFFFF" stroke="#FFFFFF" stroke-linecap="round" stroke-linejoin="round" stroke-miterlimit="10" font-family="'Proxima Nova'" font-size="24px">t</text>
<text transform="matrix(1 0 0 1 384.5884 156.7378)" fill="#FFFFFF" stroke="#FFFFFF" stroke-linecap="round" stroke-linejoin="round" stroke-miterlimit="10" font-family="'Proxima Nova'" font-size="24px">F</text>
<text transform="matrix(1 0 0 1 400.188 156.7378)" fill="#FFFFFF" stroke="#FFFFFF" stroke-linecap="round" stroke-linejoin="round" stroke-miterlimit="10" font-family="'Proxima Nova'" font-size="24px">r</text>
<text transform="matrix(1 0 0 1 417.1797 156.7378)" fill="#FFFFFF" stroke="#FFFFFF" stroke-linecap="round" stroke-linejoin="round" stroke-miterlimit="10" font-family="'Proxima Nova'" font-size="24px">o</text>
<text transform="matrix(1 0 0 1 437.94 156.7378)" fill="#FFFFFF" stroke="#FFFFFF" stroke-linecap="round" stroke-linejoin="round" stroke-miterlimit="10" font-family="'Proxima Nova'" font-size="24px">n</text>
<text transform="matrix(1 0 0 1 457.3316 156.7378)" fill="#FFFFFF" stroke="#FFFFFF" stroke-linecap="round" stroke-linejoin="round" stroke-miterlimit="10" font-family="'Proxima Nova'" font-size="24px">t</text>
<text transform="matrix(1 0 0 1 473.4117 156.7378)" fill="#FFFFFF" stroke="#FFFFFF" stroke-linecap="round" stroke-linejoin="round" stroke-miterlimit="10" font-family="'Proxima Nova'" font-size="24px"> </text>
<text transform="matrix(1 0 0 1 381.6124 184.7378)" fill="#FFFFFF" stroke="#FFFFFF" stroke-linecap="round" stroke-linejoin="round" stroke-miterlimit="10" font-family="'Proxima Nova'" font-size="24px">o</text>
<text transform="matrix(1 0 0 1 402.3721 184.7378)" fill="#FFFFFF" stroke="#FFFFFF" stroke-linecap="round" stroke-linejoin="round" stroke-miterlimit="10" font-family="'Proxima Nova'" font-size="24px">f</text>
<text transform="matrix(1 0 0 1 417.9722 184.7378)" fill="#FFFFFF" stroke="#FFFFFF" stroke-linecap="round" stroke-linejoin="round" stroke-miterlimit="10" font-family="'Proxima Nova'" font-size="24px">f</text>
<text transform="matrix(1 0 0 1 433.5718 184.7378)" fill="#FFFFFF" stroke="#FFFFFF" stroke-linecap="round" stroke-linejoin="round" stroke-miterlimit="10" font-family="'Proxima Nova'" font-size="24px">i</text>
<text transform="matrix(1 0 0 1 441.7076 184.7378)" fill="#FFFFFF" stroke="#FFFFFF" stroke-linecap="round" stroke-linejoin="round" stroke-miterlimit="10" font-family="'Proxima Nova'" font-size="24px">c</text>
<text transform="matrix(1 0 0 1 460.3316 184.7378)" fill="#FFFFFF" stroke="#FFFFFF" stroke-linecap="round" stroke-linejoin="round" stroke-miterlimit="10" font-family="'Proxima Nova'" font-size="24px">e</text>
<text transform="matrix(1 0 0 1 366.5523 228.7378)" fill="#FFFFFF" stroke="#FFFFFF" stroke-linecap="round" stroke-linejoin="round" stroke-miterlimit="10" font-family="'Proxima Nova'" font-size="24px">b</text>
<text transform="matrix(1 0 0 1 384.0484 228.7378)" fill="#FFFFFF" stroke="#FFFFFF" stroke-linecap="round" stroke-linejoin="round" stroke-miterlimit="10" font-family="'Proxima Nova'" font-size="24px">a</text>
<text transform="matrix(1 0 0 1 401.3521 228.7378)" fill="#FFFFFF" stroke="#FFFFFF" stroke-linecap="round" stroke-linejoin="round" stroke-miterlimit="10" font-family="'Proxima Nova'" font-size="24px">c</text>
<text transform="matrix(1 0 0 1 419.9761 228.7378)" fill="#FFFFFF" stroke="#FFFFFF" stroke-linecap="round" stroke-linejoin="round" stroke-miterlimit="10" font-family="'Proxima Nova'" font-size="24px">k</text>
<text transform="matrix(1 0 0 1 436.8004 228.7378)" fill="#FFFFFF" stroke="#FFFFFF" stroke-linecap="round" stroke-linejoin="round" stroke-miterlimit="10" font-family="'Proxima Nova'" font-size="24px">e</text>
<text transform="matrix(1 0 0 1 452.856 228.7378)" fill="#FFFFFF" stroke="#FFFFFF" stroke-linecap="round" stroke-linejoin="round" stroke-miterlimit="10" font-family="'Proxima Nova'" font-size="24px">n</text>
<text transform="matrix(1 0 0 1 472.2476 228.7378)" fill="#FFFFFF" stroke="#FFFFFF" stroke-linecap="round" stroke-linejoin="round" stroke-miterlimit="10" font-family="'Proxima Nova'" font-size="24px">d</text>
<path id="TheIndexFund" fill="#6C88AD" d="M413.4,0h-5.5c-0.6,0-1,0.4-1,1v16c0,0.6,0.4,1,1,1h5.5c5.4,0,9.2-3.7,9.2-9
	C422.6,3.8,418.7,0,413.4,0z M413.4,14.2h-2.5V3.8h2.5c3.1,0,5.1,2.1,5.1,5.2C418.5,11.6,416.9,14.2,413.4,14.2z M333.8,0h-12.1
	c-0.6,0-1,0.4-1,1v1.8c0,0.6,0.4,1,1,1h4.1V17c0,0.6,0.4,1,1,1h2c0.6,0,1-0.4,1-1V3.8h4.1c0.6,0,1-0.4,1-1V1
	C334.8,0.4,334.3,0,333.8,0z M400.6,0h-2c-0.6,0-1,0.4-1,1v9.5l-7.4-10.1C390,0.2,389.7,0,389.3,0h-2c-0.6,0-1,0.4-1,1v16
	c0,0.6,0.4,1,1,1h2c0.6,0,1-0.4,1-1V7.3l7.5,10.3c0.2,0.3,0.5,0.4,0.8,0.4h1.9c0.6,0,1-0.4,1-1V1C401.6,0.4,401.1,0,400.6,0z
	 M371.2,0h-10.5c-0.6,0-1,0.4-1,1v16c0,0.6,0.4,1,1,1h10.5c0.6,0,1-0.4,1-1v-1.8c0-0.6-0.4-1-1-1h-7.5v-3.5h7.3c0.6,0,1-0.4,1-1V7.9
	c0-0.6-0.4-1-1-1h-7.3V3.8h7.5c0.6,0,1-0.4,1-1V1C372.2,0.4,371.8,0,371.2,0z M380,0h-2c-0.6,0-1,0.4-1,1v16c0,0.6,0.4,1,1,1h2
	c0.6,0,1-0.4,1-1V1C381,0.4,380.5,0,380,0z M353.4,0h-2c-0.6,0-1,0.4-1,1v5.9H343V1c0-0.6-0.4-1-1-1h-2c-0.6,0-1,0.4-1,1v16
	c0,0.6,0.4,1,1,1h2c0.6,0,1-0.4,1-1v-6.3h7.4V17c0,0.6,0.4,1,1,1h2c0.6,0,1-0.4,1-1V1C354.4,0.4,353.9,0,353.4,0z M494.7,0h-2
	c-0.6,0-1,0.4-1,1v9.7c0,1.7-0.6,3.8-3.5,3.8s-3.5-2.1-3.5-3.8V1c0-0.6-0.4-1-1-1h-2c-0.6,0-1,0.4-1,1v9.8c0,4.7,2.8,7.5,7.5,7.5
	c4.7,0,7.5-2.8,7.5-7.5V1C495.7,0.4,495.2,0,494.7,0z M515.3,0h-2c-0.6,0-1,0.4-1,1v9.5l-7.4-10.1C504.7,0.2,504.4,0,504,0h-2
	c-0.6,0-1,0.4-1,1v16c0,0.6,0.4,1,1,1h2c0.6,0,1-0.4,1-1V7.3l7.5,10.3c0.2,0.3,0.5,0.4,0.8,0.4h1.9c0.6,0,1-0.4,1-1V1
	C516.3,0.4,515.8,0,515.3,0z M438.8,0h-10.5c-0.6,0-1,0.4-1,1v16c0,0.6,0.4,1,1,1h10.5c0.6,0,1-0.4,1-1v-1.8c0-0.6-0.4-1-1-1h-7.5
	v-3.5h7.3c0.6,0,1-0.4,1-1V7.9c0-0.6-0.4-1-1-1h-7.3V3.8h7.5c0.6,0,1-0.4,1-1V1C439.8,0.4,439.3,0,438.8,0z M528.1,0h-5.5
	c-0.6,0-1,0.4-1,1v16c0,0.6,0.4,1,1,1h5.5c5.4,0,9.2-3.7,9.2-9C537.3,3.8,533.4,0,528.1,0z M528.1,14.2h-2.5V3.8h2.5
	c3.1,0,5.1,2.1,5.1,5.2C533.2,11.6,531.6,14.2,528.1,14.2z M454.1,8.8l5.4-7.2c0.2-0.3,0.3-0.7,0.1-1C459.4,0.2,459,0,458.7,0h-2.4
	c-0.3,0-0.6,0.2-0.8,0.4l-3.9,5.3l-3.9-5.3c-0.2-0.3-0.5-0.4-0.8-0.4h-2.4c-0.4,0-0.7,0.2-0.9,0.6c-0.2,0.3-0.1,0.7,0.1,1l5.4,7.2
	l-5.8,7.6c-0.2,0.3-0.3,0.7-0.1,1c0.2,0.3,0.5,0.6,0.9,0.6h2.4c0.3,0,0.6-0.1,0.8-0.4l4.3-5.8l4.3,5.8c0.2,0.3,0.5,0.4,0.8,0.4h2.4
	c0.4,0,0.7-0.2,0.9-0.6c0.2-0.3,0.1-0.7-0.1-1L454.1,8.8z M475.3,0h-10.5c-0.6,0-1,0.4-1,1v16c0,0.6,0.4,1,1,1h2c0.6,0,1-0.4,1-1
	v-6.3h7.3c0.6,0,1-0.4,1-1V7.9c0-0.6-0.4-1-1-1h-7.3V3.8h7.5c0.6,0,1-0.4,1-1V1C476.3,0.4,475.8,0,475.3,0z"/>
<text transform="matrix(1 0 0 1 214.8326 290.6904)" fill="#2A6E76" font-family="'Proxima Nova'" font-size="22px">T</text>
<text transform="matrix(1 0 0 1 224.8423 290.6904)" fill="#2A6E76" font-family="'Proxima Nova'" font-size="22px">o</text>
<text transform="matrix(1 0 0 1 237.4263 290.6904)" fill="#2A6E76" font-family="'Proxima Nova'" font-size="22px">k</text>
<text transform="matrix(1 0 0 1 248.6685 290.6904)" fill="#2A6E76" font-family="'Proxima Nova'" font-size="22px">e</text>
<text transform="matrix(1 0 0 1 261.0543 290.6904)" fill="#2A6E76" font-family="'Proxima Nova'" font-size="22px">n</text>
<g id="Arrow_3_">
	<path fill="none" stroke="#6C88AD" stroke-width="4" stroke-linecap="round" stroke-linejoin="round" d="M251,194l-28,28l28,28"/>
	
		<line fill="none" stroke="#6C88AD" stroke-width="4" stroke-linecap="round" stroke-linejoin="round" x1="317" y1="222" x2="223" y2="222"/>
</g>
<g>
	<path fill="none" stroke="#2A6E76" stroke-width="4" stroke-linecap="round" stroke-linejoin="round" d="M244,134l28-28l-28-28"/>
	
		<line fill="none" stroke="#2A6E76" stroke-width="4" stroke-linecap="round" stroke-linejoin="round" x1="186" y1="106" x2="272" y2="106"/>
</g>
<text transform="matrix(1 0 0 1 196.4322 52.0156)" fill="#2A6E76" font-family="'Proxima Nova'" font-size="22px">B</text>
<text transform="matrix(1 0 0 1 209.8961 52.0156)" fill="#2A6E76" font-family="'Proxima Nova'" font-size="22px">T</text>
<text transform="matrix(1 0 0 1 221.8423 52.0156)" fill="#2A6E76" font-family="'Proxima Nova'" font-size="22px">C</text>
<text transform="matrix(1 0 0 1 236.7144 52.0156)" fill="#2A6E76" font-family="'Proxima Nova'" font-size="22px">,</text>
<text transform="matrix(1 0 0 1 241.774 52.0156)" fill="#2A6E76" font-family="'Proxima Nova'" font-size="22px"> </text>
<text transform="matrix(1 0 0 1 250.855 52.0156)" fill="#2A6E76" font-family="'Proxima Nova'" font-size="22px">E</text>
<text transform="matrix(1 0 0 1 263.3726 52.0156)" fill="#2A6E76" font-family="'Proxima Nova'" font-size="22px">T</text>
<text transform="matrix(1 0 0 1 275.9127 52.0156)" fill="#2A6E76" font-family="'Proxima Nova'" font-size="22px">H</text>
<path fill="#CBCDD7" d="M162,190H76c-11,0-20-9-20-20V84c0-11,9-20,20-20h86c11,0,20,9,20,20v86C182,181,173,190,162,190z"/>
<text transform="matrix(1 0 0 1 16.3606 253.4717)" fill="#2A6E76" stroke="#2A6E76" stroke-linecap="round" stroke-linejoin="round" stroke-miterlimit="10" font-family="'Proxima Nova'" font-size="24px">I</text>
<text transform="matrix(1 0 0 1 24.4964 253.4717)" fill="#2A6E76" stroke="#2A6E76" stroke-linecap="round" stroke-linejoin="round" stroke-miterlimit="10" font-family="'Proxima Nova'" font-size="24px">n</text>
<text transform="matrix(1 0 0 1 43.8885 253.4717)" fill="#2A6E76" stroke="#2A6E76" stroke-linecap="round" stroke-linejoin="round" stroke-miterlimit="10" font-family="'Proxima Nova'" font-size="24px">v</text>
<text transform="matrix(1 0 0 1 62.0803 253.4717)" fill="#2A6E76" stroke="#2A6E76" stroke-linecap="round" stroke-linejoin="round" stroke-miterlimit="10" font-family="'Proxima Nova'" font-size="24px">e</text>
<text transform="matrix(1 0 0 1 78.136 253.4717)" fill="#2A6E76" stroke="#2A6E76" stroke-linecap="round" stroke-linejoin="round" stroke-miterlimit="10" font-family="'Proxima Nova'" font-size="24px">s</text>
<text transform="matrix(1 0 0 1 94.4558 253.4717)" fill="#2A6E76" stroke="#2A6E76" stroke-linecap="round" stroke-linejoin="round" stroke-miterlimit="10" font-family="'Proxima Nova'" font-size="24px">t</text>
<text transform="matrix(1 0 0 1 109.888 253.4717)" fill="#2A6E76" stroke="#2A6E76" stroke-linecap="round" stroke-linejoin="round" stroke-miterlimit="10" font-family="'Proxima Nova'" font-size="24px">o</text>
<text transform="matrix(1 0 0 1 130.6477 253.4717)" fill="#2A6E76" stroke="#2A6E76" stroke-linecap="round" stroke-linejoin="round" stroke-miterlimit="10" font-family="'Proxima Nova'" font-size="24px">r</text>
<g id="Investor">
	
		<line fill="none" stroke="#2A6E76" stroke-width="4" stroke-linecap="round" stroke-linejoin="round" x1="99" y1="179" x2="65" y2="179"/>
	<path fill="none" stroke="#2A6E76" stroke-width="4" stroke-linecap="round" stroke-linejoin="round" d="M120,179h42v33
		c0,5.5-4.5,10-10,10H12c-5.5,0-10-4.5-10-10v-33h42"/>
	<path fill="none" stroke="#2A6E76" stroke-width="4" stroke-linecap="round" stroke-linejoin="round" d="M2,159.5V116
		c0-5.5,4.5-10,10-10H152c5.1-0.4,9.6,3.3,10,8.4c0,0.5,0,1,0,1.6v43.5"/>
	
		<line fill="none" stroke="#2A6E76" stroke-width="4" stroke-linecap="round" stroke-linejoin="round" x1="27" y1="106" x2="27" y2="202"/>
	
		<line fill="none" stroke="#2A6E76" stroke-width="4" stroke-linecap="round" stroke-linejoin="round" x1="137" y1="106" x2="137" y2="202"/>
	
		<ellipse transform="matrix(0.866 -0.5 0.5 0.866 -62.0141 60.5603)" fill="none" stroke="#2A6E76" stroke-width="4" stroke-miterlimit="10" cx="82" cy="146" rx="7" ry="7"/>
	<path fill="none" stroke="#2A6E76" stroke-width="4" stroke-linecap="round" stroke-linejoin="round" d="M47,85.9
		c0.1-5.5,4.5-9.9,10-9.9h50c5.5,0,10,4.5,10,10"/>
</g>
</svg>
