<svg style="display:none"><symbol viewBox="0 0 52 68" id="arrow-svg"> <g> <path fill="#C0C7D0" d="M26,68c-0.1,0-0.3,0-0.4,0C25.7,68,25.9,68,26,68z"/> <path fill="#C0C7D0" d="M25.4,67.9c-0.1,0-0.1,0-0.2-0.1C25.3,67.9,25.4,67.9,25.4,67.9z"/> <path fill="#C0C7D0" d="M25,67.7c-0.1,0-0.1-0.1-0.2-0.1C24.9,67.7,25,67.7,25,67.7z"/> <path fill="#C0C7D0" d="M24,61.2L3.4,40.6c-0.8-0.8-2-0.8-2.8,0c-0.8,0.8-0.8,2,0,2.8l24,24C24.2,67.1,24,66.6,24,66V61.2z"/> <path fill="#C0C7D0" d="M48.6,40.6L28,61.2V66c0,0.6-0.2,1.1-0.6,1.4l24-24c0.8-0.8,0.8-2,0-2.8S49.4,39.8,48.6,40.6z"/> <path fill="#C0C7D0" d="M26.4,68c-0.1,0-0.3,0-0.4,0C26.1,68,26.3,68,26.4,68z"/> <path fill="#C0C7D0" d="M27.1,67.7c0,0-0.1,0.1-0.1,0.1C27,67.7,27.1,67.7,27.1,67.7z"/> <path fill="#C0C7D0" d="M26.8,67.8c-0.1,0-0.1,0-0.2,0.1C26.6,67.9,26.7,67.9,26.8,67.8z"/> <path fill="#C0C7D0" d="M28,61.2V2c0-1.1-0.9-2-2-2s-2,0.9-2,2v59.2V66c0,0.6,0.2,1.1,0.6,1.4c0.1,0.1,0.2,0.2,0.3,0.3
		c0,0,0.1,0.1,0.2,0.1c0.1,0,0.1,0.1,0.2,0.1c0.1,0,0.1,0,0.2,0.1c0.1,0,0.1,0,0.2,0.1c0.1,0,0.3,0,0.4,0c0.1,0,0.3,0,0.4,0
		c0.1,0,0.1,0,0.2-0.1c0.1,0,0.1,0,0.2-0.1c0.1,0,0.1-0.1,0.2-0.1c0,0,0.1,0,0.1-0.1c0.1-0.1,0.2-0.2,0.3-0.3
		c0.4-0.4,0.6-0.9,0.6-1.4V61.2z"/> </g> </symbol><symbol viewBox="0 0 134 120" id="diversification-svg"> <g> <path fill="none" stroke="#FFFFFF" stroke-width="4" stroke-linecap="round" stroke-linejoin="round" d="M79,79
		C68.5,85.1,55,81.5,49,71c-6.1-10.5-2.5-24,8.1-30s24-2.5,30.1,8.1C89,52.3,90,56.1,90,60"/> <g> <line fill="none" stroke="#FFFFFF" stroke-width="4" stroke-linecap="round" stroke-linejoin="round" x1="3" y1="60" x2="31" y2="60"/> <polyline fill="none" stroke="#FFFFFF" stroke-width="4" stroke-linecap="round" stroke-linejoin="round" points="12.4,49.6 2,60 
			12.4,70.4 		"/> </g> <g> <line fill="none" stroke="#FFFFFF" stroke-width="4" stroke-linecap="round" stroke-linejoin="round" x1="56.2" y1="80.3" x2="34" y2="118"/> <polyline fill="none" stroke="#FFFFFF" stroke-width="4" stroke-linecap="round" stroke-linejoin="round" points="31,103.6 
			34.1,118 48,114.8 		"/> </g> <g> <line fill="none" stroke="#FFFFFF" stroke-width="4" stroke-linecap="round" stroke-linejoin="round" x1="79.8" y1="80.3" x2="102" y2="118"/> <polyline fill="none" stroke="#FFFFFF" stroke-width="4" stroke-linecap="round" stroke-linejoin="round" points="105,103.6 
			101.9,118 88,114.8 		"/> </g> <g> <g> <polyline fill="none" stroke="#FFFFFF" stroke-width="4" stroke-linecap="round" stroke-linejoin="round" points="121.6,70.4 
				132,60 121.6,49.6 			"/> </g> <line fill="none" stroke="#FFFFFF" stroke-width="4" stroke-linecap="round" stroke-linejoin="round" x1="132" y1="60" x2="90.3" y2="60"/> </g> <g> <line fill="none" stroke="#FFFFFF" stroke-width="4" stroke-linecap="round" stroke-linejoin="round" x1="79.8" y1="39.7" x2="102" y2="2"/> <polyline fill="none" stroke="#FFFFFF" stroke-width="4" stroke-linecap="round" stroke-linejoin="round" points="105,16.4 
			101.9,2 88,5.2 		"/> </g> <g> <line fill="none" stroke="#FFFFFF" stroke-width="4" stroke-linecap="round" stroke-linejoin="round" x1="56.2" y1="39.7" x2="34" y2="2"/> <polyline fill="none" stroke="#FFFFFF" stroke-width="4" stroke-linecap="round" stroke-linejoin="round" points="31,16.4 34.1,2 
			48,5.2 		"/> </g> </g> </symbol><symbol viewBox="0 0 511.626 511.626" id="envelope-svg"> <g> <g> <path d="M49.106,178.729c6.472,4.567,25.981,18.131,58.528,40.685c32.548,22.554,57.482,39.92,74.803,52.099
			c1.903,1.335,5.946,4.237,12.131,8.71c6.186,4.476,11.326,8.093,15.416,10.852c4.093,2.758,9.041,5.852,14.849,9.277
			c5.806,3.422,11.279,5.996,16.418,7.7c5.14,1.718,9.898,2.569,14.275,2.569h0.287h0.288c4.377,0,9.137-0.852,14.277-2.569
			c5.137-1.704,10.615-4.281,16.416-7.7c5.804-3.429,10.752-6.52,14.845-9.277c4.093-2.759,9.229-6.376,15.417-10.852
			c6.184-4.477,10.232-7.375,12.135-8.71c17.508-12.179,62.051-43.11,133.615-92.79c13.894-9.703,25.502-21.411,34.827-35.116
			c9.332-13.699,13.993-28.07,13.993-43.105c0-12.564-4.523-23.319-13.565-32.264c-9.041-8.947-19.749-13.418-32.117-13.418H45.679
			c-14.655,0-25.933,4.948-33.832,14.844C3.949,79.562,0,91.934,0,106.779c0,11.991,5.236,24.985,15.703,38.974
			C26.169,159.743,37.307,170.736,49.106,178.729z"/> <path d="M483.072,209.275c-62.424,42.251-109.824,75.087-142.177,98.501c-10.849,7.991-19.65,14.229-26.409,18.699
			c-6.759,4.473-15.748,9.041-26.98,13.702c-11.228,4.668-21.692,6.995-31.401,6.995h-0.291h-0.287
			c-9.707,0-20.177-2.327-31.405-6.995c-11.228-4.661-20.223-9.229-26.98-13.702c-6.755-4.47-15.559-10.708-26.407-18.699
			c-25.697-18.842-72.995-51.68-141.896-98.501C17.987,202.047,8.375,193.762,0,184.437v226.685c0,12.57,4.471,23.319,13.418,32.265
			c8.945,8.949,19.701,13.422,32.264,13.422h420.266c12.56,0,23.315-4.473,32.261-13.422c8.949-8.949,13.418-19.694,13.418-32.265
			V184.437C503.441,193.569,493.927,201.854,483.072,209.275z"/> </g> </g> </symbol><symbol viewBox="0 0 90 90" id="facebook-logo-svg"> <g> <path id="facebook-logo-svg-Facebook__x28_alt_x29_" d="M90,15.001C90,7.119,82.884,0,75,0H15C7.116,0,0,7.119,0,15.001v59.998
		C0,82.881,7.116,90,15.001,90H45V56H34V41h11v-5.844C45,25.077,52.568,16,61.875,16H74v15H61.875C60.548,31,59,32.611,59,35.024V41
		h15v15H59v34h16c7.884,0,15-7.119,15-15.001V15.001z"/> </g> </symbol><symbol viewBox="0 0 124 118" id="get-tockens-svg"> <g> <path fill="none" stroke="#2A6E76" stroke-width="4" stroke-linecap="round" stroke-linejoin="round" d="M10.8,93L2.2,41.5
		c-0.8-3.8,1.6-7.6,5.5-8.4C8.1,33.1,8.6,33,9,33H115c3.9,0,7,3.2,7,7.1c0,0.5-0.1,1-0.1,1.4L113.2,93"/> <path fill="none" stroke="#2A6E76" stroke-width="4" stroke-linecap="round" stroke-linejoin="round" d="M33.8,33.1L64,4.9
		c2.8-2.7,7.2-2.7,10,0l30.3,28.2"/> <line fill="none" stroke="#2A6E76" stroke-width="4" stroke-linecap="round" stroke-linejoin="round" x1="17.9" y1="33.1" x2="51" y2="2"/> <line fill="none" stroke="#2A6E76" stroke-width="4" stroke-linecap="round" stroke-linejoin="round" x1="75" y1="102" x2="49" y2="102"/> <path fill="none" stroke="#2A6E76" stroke-width="4" stroke-linecap="round" stroke-linejoin="round" d="M37.5,106.3
		c-2.4,1.4-5.4,0.5-6.8-1.8c-1.4-2.4-0.5-5.4,1.8-6.8c2.4-1.4,5.4-0.6,6.8,1.8C40.7,101.9,39.9,104.9,37.5,106.3
		C37.5,106.3,37.5,106.3,37.5,106.3z"/> <path fill="none" stroke="#2A6E76" stroke-width="4" stroke-linecap="round" stroke-linejoin="round" d="M91.5,106.3
		c-2.4,1.4-5.4,0.5-6.8-1.8c-1.4-2.4-0.5-5.4,1.8-6.8c2.4-1.4,5.4-0.6,6.8,1.8C94.7,101.9,93.9,104.9,91.5,106.3
		C91.5,106.3,91.5,106.3,91.5,106.3z"/> <ellipse fill="none" stroke="#2A6E76" stroke-width="4" stroke-linecap="round" stroke-linejoin="round" cx="35" cy="102" rx="14" ry="14"/> <ellipse fill="none" stroke="#2A6E76" stroke-width="4" stroke-linecap="round" stroke-linejoin="round" cx="89" cy="102" rx="14" ry="14"/> <path fill="none" stroke="#2A6E76" stroke-width="4" stroke-linecap="round" stroke-linejoin="round" d="M51,51h16.5
		c7.3,0,7.3,11,0,11H58"/> <path fill="none" stroke="#2A6E76" stroke-width="4" stroke-linecap="round" stroke-linejoin="round" d="M51,76h19.7
		c9.8,0,9.7-13.9,0-14H58"/> <line fill="none" stroke="#2A6E76" stroke-width="4" stroke-linecap="round" stroke-linejoin="round" x1="58" y1="45" x2="58" y2="81"/> </g> </symbol><symbol viewBox="0 0 124 112" id="high-perfomance-svg"> <g> <path fill="none" stroke="#FFFFFF" stroke-width="4" stroke-linecap="round" stroke-linejoin="round" d="M82,110l32,0
		c4.4,0,8-3.6,8-8V8c0-3.3-2.7-6-6-6L90,2c-4.4,0-8,3.6-8,8V110z"/> <polyline fill="none" stroke="#FFFFFF" stroke-width="4" stroke-linecap="round" stroke-linejoin="round" points="42,110 82,110 
		82,38 	"/> <path fill="none" stroke="#FFFFFF" stroke-width="4" stroke-linecap="round" stroke-linejoin="round" d="M82,38H50
		c-4.4,0-8,3.6-8,8v12"/> <path fill="none" stroke="#FFFFFF" stroke-width="4" stroke-linecap="round" stroke-linejoin="round" d="M10,74l32,0v36l-32,0
		c-4.4,0-8-3.6-8-8l0-20C2,77.6,5.6,74,10,74z"/> <g> <line fill="none" stroke="#FFFFFF" stroke-width="4" stroke-linecap="round" stroke-linejoin="round" x1="44" y1="2" x2="2" y2="44"/> <line fill="none" stroke="#FFFFFF" stroke-width="4" stroke-linecap="round" stroke-linejoin="round" x1="28" y1="2" x2="44" y2="2"/> <line fill="none" stroke="#FFFFFF" stroke-width="4" stroke-linecap="round" stroke-linejoin="round" x1="44" y1="18" x2="44" y2="2"/> </g> <line fill="none" stroke="#FFFFFF" stroke-width="4" stroke-linecap="round" stroke-linejoin="round" x1="122" y1="62.1" x2="82" y2="102"/> <line fill="none" stroke="#FFFFFF" stroke-width="4" stroke-linecap="round" stroke-linejoin="round" x1="122" y1="88.1" x2="100" y2="110"/> <line fill="none" stroke="#FFFFFF" stroke-width="4" stroke-linecap="round" stroke-linejoin="round" x1="122" y1="36.1" x2="82" y2="76"/> <line fill="none" stroke="#FFFFFF" stroke-width="4" stroke-linecap="round" stroke-linejoin="round" x1="122" y1="10" x2="82" y2="50"/> <line fill="none" stroke="#FFFFFF" stroke-width="4" stroke-linecap="round" stroke-linejoin="round" x1="104" y1="2" x2="82" y2="24"/> </g> </symbol><symbol viewBox="0 0 134 84" id="join-svg"> <g> <ellipse transform="matrix(0.866 -0.5 0.5 0.866 -21.4186 18.0648)" fill="none" stroke="#2A6E76" stroke-width="4" stroke-linecap="round" stroke-linejoin="round" cx="23" cy="49" rx="6" ry="6"/> <line fill="none" stroke="#2A6E76" stroke-width="4" stroke-linecap="round" stroke-linejoin="round" x1="130.2" y1="23.9" x2="2" y2="23.9"/> <line fill="none" stroke="#2A6E76" stroke-width="4" stroke-linecap="round" stroke-linejoin="round" x1="51" y1="66" x2="17" y2="66"/> <path fill="none" stroke="#2A6E76" stroke-width="4" stroke-linecap="round" stroke-linejoin="round" d="M2,10c0-4.4,3.6-8,8-8h114
		c4.4,0,8,3.6,8,8v63c0,5-4,9-9,9H10c-4.4,0-8-3.6-8-8V23.8"/> <rect x="85" y="49" fill="none" stroke="#2A6E76" stroke-width="4" stroke-linecap="round" stroke-linejoin="round" width="31" height="17"/> </g> </symbol><symbol viewBox="0 0 134 134" id="liquidity-svg"> <g> <path fill="none" stroke="#FFFFFF" stroke-width="4" stroke-linecap="round" stroke-linejoin="round" d="M59.4,106
		c-21.7-4.2-35.8-25-31.7-46.5C30.8,43.5,43.4,31.1,59.4,28"/> <path fill="none" stroke="#FFFFFF" stroke-width="4" stroke-linecap="round" stroke-linejoin="round" d="M74.6,28
		c21.7,4.2,35.8,25,31.7,46.5c-3.1,15.9-15.6,28.4-31.7,31.5"/> <path fill="none" stroke="#FFFFFF" stroke-width="4" stroke-linecap="round" stroke-linejoin="round" d="M75.9,56.7
		c-12-8.6-17.1-0.3-16.3,4.3c0.6,4,6.4,5.4,8.7,5.8c16.5,2.4,5.5,21.8-10.8,9.7"/> <line fill="none" stroke="#FFFFFF" stroke-width="4" stroke-linecap="round" stroke-linejoin="round" x1="67" y1="48" x2="67" y2="53"/> <line fill="none" stroke="#FFFFFF" stroke-width="4" stroke-linecap="round" stroke-linejoin="round" x1="67" y1="80" x2="67" y2="86"/> <polyline fill="none" stroke="#FFFFFF" stroke-width="4" stroke-linecap="round" stroke-linejoin="round" points="118,124 118,108 
		102,108 	"/> <path fill="none" stroke="#FFFFFF" stroke-width="4" stroke-linecap="round" stroke-linejoin="round" d="M117,108.7
		c-1.3,1.5-2.5,2.9-3.8,4.2c-25.5,25.4-66.8,25.4-92.2-0.2C7,98.8,0.2,79.1,2.4,59.4"/> <polyline fill="none" stroke="#FFFFFF" stroke-width="4" stroke-linecap="round" stroke-linejoin="round" points="14,12 14,28 
		30,28 	"/> <path fill="none" stroke="#FFFFFF" stroke-width="4" stroke-linecap="round" stroke-linejoin="round" d="M17,25.3
		c1.3-1.5,2.5-2.9,3.8-4.2C46.3-4.4,87.6-4.3,113,21.2c14,14.1,20.8,33.7,18.6,53.5"/> </g> </symbol><symbol viewBox="0 0 110 134" id="profit-svg"> <g> <line fill="none" stroke="#2A6E76" stroke-width="4" stroke-linecap="round" stroke-linejoin="round" x1="43" y1="39" x2="67" y2="39"/> <path fill="none" stroke="#2A6E76" stroke-width="4" stroke-linecap="round" stroke-linejoin="round" d="M49,5l31,4.7
		c-1.2,5.4-6.9,12.6-13.5,17.3H43.5C38.8,22,31.9,11.6,30,2"/> <path fill="none" stroke="#2A6E76" stroke-width="4" stroke-linecap="round" stroke-linejoin="round" d="M99.1,132
		c5.6-8.4,8.9-18.4,8.9-29.3C108,73.6,84.3,50,55,50S2,73.6,2,102.7c0,10.8,3.3,20.9,8.9,29.3H99.1z"/> <g> <path fill="none" stroke="#2A6E76" stroke-width="4" stroke-linecap="round" stroke-linejoin="round" d="M65.4,83.8
			c-13.9-9.7-19.8-0.3-18.8,4.9c0.8,4.5,7.4,6.1,10.1,6.5c19.1,2.6,6.4,24.5-12.6,10.9"/> <line fill="none" stroke="#2A6E76" stroke-width="4" stroke-linecap="round" stroke-linejoin="round" x1="55" y1="74" x2="55" y2="79"/> <line fill="none" stroke="#2A6E76" stroke-width="4" stroke-linecap="round" stroke-linejoin="round" x1="55" y1="110" x2="55" y2="117"/> </g> </g> </symbol><symbol viewBox="0 0 124 100" id="security-svg"> <g> <line fill="none" stroke="#FFFFFF" stroke-width="4" stroke-linecap="round" stroke-linejoin="round" x1="118" y1="2" x2="62" y2="2"/> <circle fill="none" stroke="#FFFFFF" stroke-width="4" stroke-linecap="round" stroke-linejoin="round" cx="116" cy="22" r="6"/> <line fill="none" stroke="#FFFFFF" stroke-width="4" stroke-linecap="round" stroke-linejoin="round" x1="65" y1="22" x2="99" y2="22"/> <circle fill="none" stroke="#FFFFFF" stroke-width="4" stroke-linecap="round" stroke-linejoin="round" cx="68" cy="41" r="6"/> <line fill="none" stroke="#FFFFFF" stroke-width="4" stroke-linecap="round" stroke-linejoin="round" x1="118" y1="41" x2="85" y2="41"/> <circle fill="none" stroke="#FFFFFF" stroke-width="4" stroke-linecap="round" stroke-linejoin="round" cx="116" cy="60" r="6"/> <line fill="none" stroke="#FFFFFF" stroke-width="4" stroke-linecap="round" stroke-linejoin="round" x1="65" y1="60" x2="99" y2="60"/> <line fill="none" stroke="#FFFFFF" stroke-width="4" stroke-linecap="round" stroke-linejoin="round" x1="26.4" y1="79.3" x2="26.4" y2="60.6"/> <line fill="none" stroke="#FFFFFF" stroke-width="4" stroke-linecap="round" stroke-linejoin="round" x1="118" y1="98" x2="50" y2="98"/> <path fill="none" stroke="#FFFFFF" stroke-width="4" stroke-linecap="round" stroke-linejoin="round" d="M50,42H2v48
		c0,4.4,3.5,8,7.9,8h25.4"/> <line fill="none" stroke="#FFFFFF" stroke-width="4" stroke-linecap="round" stroke-linejoin="round" x1="50" y1="79" x2="118" y2="79"/> <path fill="none" stroke="#FFFFFF" stroke-width="4" stroke-linecap="round" stroke-linejoin="round" d="M2,26.5C2,12,12.7,2,26,2
		c13.1,0,24,10,24,24.5L50,60"/> </g> </symbol><symbol viewBox="0 0 256 256" id="telegram-svg"> <path d="m 252.71258,127.90582 c 0,68.61302 -55.62185,124.23487 -124.23487,124.23487 -68.613025,0 -124.2348714,-55.62185 -124.2348714,-124.23487 0,-68.613026 55.6218464,-124.2348732 124.2348714,-124.2348732 68.61302,0 124.23487,55.6218472 124.23487,124.2348732 z"/> <path fill="#1a2b41" d="m 155.91221,156.28613 c 3.82213,-10.4461 17.81729,-50.17266 20.06432,-60.591798 2.54062,-11.780443 -2.77796,-12.930544 -14.87454,-8.979356 -12.09657,3.951189 -43.11909,15.449414 -48.34049,17.302714 -5.2214,1.8533 -30.641435,10.39687 -35.911664,12.9461 -10.764524,5.77386 -5.528019,14.58535 6.505791,19.16062 35.967683,17.26467 25.754703,8.46685 41.812423,40.41274 3.30464,8.16089 11.09674,22.06171 18.5597,11.55404 3.92326,-5.97624 9.17875,-23.5903 12.18446,-31.80506 z"/></symbol></svg>