<svg baseProfile="tiny" xmlns="http://www.w3.org/2000/svg" viewBox="0 0 134 120"><path fill="none" stroke="#FFF" stroke-width="4" stroke-linecap="round" stroke-linejoin="round" d="M79 79c-10.5 6.1-24 2.5-30-8-6.1-10.5-2.5-24 8.1-30s24-2.5 30.1 8.1C89 52.3 90 56.1 90 60" style="stroke-dasharray: 115.078; stroke-dashoffset: 115.078;"></path><g fill="none" stroke="#FFF" stroke-width="4" stroke-linecap="round" stroke-linejoin="round"><path d="M3 60h28M12.4 49.6L2 60l10.4 10.4" style="stroke-dasharray: 57.4156; stroke-dashoffset: 57.4156;"></path></g><g fill="none" stroke="#FFF" stroke-width="4" stroke-linecap="round" stroke-linejoin="round"><path d="M56.2 80.3L34 118M31 103.6l3.1 14.4 13.9-3.2" style="stroke-dasharray: 72.7443; stroke-dashoffset: 72.7443;"></path></g><g fill="none" stroke="#FFF" stroke-width="4" stroke-linecap="round" stroke-linejoin="round"><path d="M79.8 80.3L102 118M105 103.6l-3.1 14.4-13.9-3.2" style="stroke-dasharray: 72.7443; stroke-dashoffset: 72.7443;"></path></g><path fill="none" stroke="#FFF" stroke-width="4" stroke-linecap="round" stroke-linejoin="round" d="M121.6 70.4L132 60l-10.4-10.4M132 60H90.3" style="stroke-dasharray: 71.1156; stroke-dashoffset: 71.1156;"></path><g fill="none" stroke="#FFF" stroke-width="4" stroke-linecap="round" stroke-linejoin="round"><path d="M79.8 39.7L102 2M105 16.4L101.9 2 88 5.2" style="stroke-dasharray: 72.7443; stroke-dashoffset: 72.7443;"></path></g><g fill="none" stroke="#FFF" stroke-width="4" stroke-linecap="round" stroke-linejoin="round"><path d="M56.2 39.7L34 2M31 16.4L34.1 2 48 5.2" style="stroke-dasharray: 72.7443; stroke-dashoffset: 72.7443;"></path></g></svg>