<svg baseProfile="tiny" xmlns="http://www.w3.org/2000/svg" viewBox="0 0 124 118"><g fill="none" stroke="#2A6E76" stroke-width="4" stroke-linecap="round" stroke-linejoin="round"><path d="M10.8 93L2.2 41.5c-.8-3.8 1.6-7.6 5.5-8.4.4 0 .9-.1 1.3-.1h106c3.9 0 7 3.2 7 7.1 0 .5-.1 1-.1 1.4L113.2 93" style="stroke-dasharray: 235.395; stroke-dashoffset: 235.395;"></path><path d="M33.8 33.1L64 4.9c2.8-2.7 7.2-2.7 10 0l30.3 28.2M17.9 33.1L51 2M75 102H49M37.5 106.3c-2.4 1.4-5.4.5-6.8-1.8-1.4-2.4-.5-5.4 1.8-6.8 2.4-1.4 5.4-.6 6.8 1.8 1.4 2.4.6 5.4-1.8 6.8zM91.5 106.3c-2.4 1.4-5.4.5-6.8-1.8-1.4-2.4-.5-5.4 1.8-6.8 2.4-1.4 5.4-.6 6.8 1.8 1.4 2.4.6 5.4-1.8 6.8z" style="stroke-dasharray: 227.678; stroke-dashoffset: 227.678;"></path><ellipse cx="35" cy="102" rx="14" ry="14" style="stroke-dasharray: 87.3978; stroke-dashoffset: 87.3978;"></ellipse><ellipse cx="89" cy="102" rx="14" ry="14" style="stroke-dasharray: 87.3977; stroke-dashoffset: 87.3977;"></ellipse><path d="M51 51h16.5c7.3 0 7.3 11 0 11H58M51 76h19.7c9.8 0 9.7-13.9 0-14H58M58 45v36" style="stroke-dasharray: 134.482; stroke-dashoffset: 134.482;"></path></g></svg>