<svg baseProfile="tiny" xmlns="http://www.w3.org/2000/svg" viewBox="0 0 134 134"><g fill="none" stroke="#FFF" stroke-width="4" stroke-linecap="round" stroke-linejoin="round"><path d="M59.4 106c-21.7-4.2-35.8-25-31.7-46.5 3.1-16 15.7-28.4 31.7-31.5M74.6 28c21.7 4.2 35.8 25 31.7 46.5-3.1 15.9-15.6 28.4-31.7 31.5" style="stroke-dasharray: 219.878; stroke-dashoffset: 219.878;"></path><path d="M75.9 56.7c-12-8.6-17.1-.3-16.3 4.3.6 4 6.4 5.4 8.7 5.8 16.5 2.4 5.5 21.8-10.8 9.7M67 48v5M67 80v6M118 124v-16h-16" style="stroke-dasharray: 111.487; stroke-dashoffset: 111.487;"></path><path d="M117 108.7c-1.3 1.5-2.5 2.9-3.8 4.2-25.5 25.4-66.8 25.4-92.2-.2C7 98.8.2 79.1 2.4 59.4M14 12v16h16" style="stroke-dasharray: 198.519; stroke-dashoffset: 198.519;"></path><path d="M17 25.3c1.3-1.5 2.5-2.9 3.8-4.2 25.5-25.5 66.8-25.4 92.2.1 14 14.1 20.8 33.7 18.6 53.5" style="stroke-dasharray: 166.691; stroke-dashoffset: 166.691;"></path></g></svg>