<svg baseProfile="tiny" xmlns="http://www.w3.org/2000/svg" viewBox="0 0 124 112"><g fill="none" stroke="#FFF" stroke-width="4" stroke-linecap="round" stroke-linejoin="round"><path d="M82 110h32c4.4 0 8-3.6 8-8V8c0-3.3-2.7-6-6-6H90c-4.4 0-8 3.6-8 8v100zM42 110h40V38" style="stroke-dasharray: 398.541; stroke-dashoffset: 398.541;"></path><path d="M82 38H50c-4.4 0-8 3.6-8 8v12M10 74h32v36H10c-4.4 0-8-3.6-8-8V82c0-4.4 3.6-8 8-8zM44 2L2 44M28 2h16M44 18V2M122 62.1L82 102M122 88.1L100 110M122 36.1L82 76M122 10L82 50M104 2L82 24" style="stroke-dasharray: 524.797; stroke-dashoffset: 524.797;"></path></g></svg>