<svg baseProfile="tiny" xmlns="http://www.w3.org/2000/svg" viewBox="0 0 110 134"><g fill="none" stroke="#2A6E76" stroke-width="4" stroke-linecap="round" stroke-linejoin="round"><path d="M43 39h24M49 5l31 4.7c-1.2 5.4-6.9 12.6-13.5 17.3h-23C38.8 22 31.9 11.6 30 2M99.1 132c5.6-8.4 8.9-18.4 8.9-29.3C108 73.6 84.3 50 55 50S2 73.6 2 102.7c0 10.8 3.3 20.9 8.9 29.3h88.2z" style="stroke-dasharray: 445.826; stroke-dashoffset: 445.826;"></path><path d="M65.4 83.8c-13.9-9.7-19.8-.3-18.8 4.9.8 4.5 7.4 6.1 10.1 6.5 19.1 2.6 6.4 24.5-12.6 10.9M55 74v5M55 110v7" style="stroke-dasharray: 90.6189; stroke-dashoffset: 90.6189;"></path></g></svg>